<?xml version="1.0" encoding="UTF-8"?>
<svg xmlns="http://www.w3.org/2000/svg"
    xmlns:xlink="http://www.w3.org/1999/xlink" style="display:none">

    <!-- ======================
       CAR
       ====================== -->
    <symbol id="icon-car" viewBox="0 0 24 24">
        <path d="M3 13l2-5a3 3 0 0 1 3-2h8a3 3 0 0 1 3 2l2 5" fill="none" stroke="currentColor" stroke-width="2" stroke-linecap="round" stroke-linejoin="round" />
        <circle cx="7.5" cy="16.5" r="1.5" fill="currentColor" />
        <circle cx="16.5" cy="16.5" r="1.5" fill="currentColor" />
        <path d="M3 13h18v3a2 2 0 0 1-2 2h-1" fill="none" stroke="currentColor" stroke-width="2" />
    </symbol>

    <!-- ======================
       CALENDAR
       ====================== -->
    <symbol id="icon-calendar" viewBox="0 0 24 24">
        <path d="M7 2v2M17 2v2M3 8h18M5 5h14a2 2 0 0 1 2 2v13a2 2 0 0 1-2 2H5a2 2 0 0 1-2-2V7a2 2 0 0 1 2-2z" fill="none" stroke="currentColor" stroke-width="2" stroke-linecap="round" stroke-linejoin="round" />
    </symbol>

    <!-- ======================
       CHEVRON RIGHT
       ====================== -->
    <symbol id="icon-chevron-right" viewBox="0 0 24 24">
        <path d="M9 18l6-6-6-6" fill="none" stroke="currentColor" stroke-width="2" stroke-linecap="round" stroke-linejoin="round" />
    </symbol>

    <!-- ======================
       FUEL / GAS
       ====================== -->
    <symbol id="icon-fuel" viewBox="0 0 24 24">
        <path d="M3 3h10v18H3z" fill="none" stroke="currentColor" stroke-width="2" stroke-linejoin="round" />
        <path d="M13 7h3l3 3v9a2 2 0 0 1-2 2" fill="none" stroke="currentColor" stroke-width="2" stroke-linecap="round" stroke-linejoin="round" />
        <circle cx="8" cy="14" r="2" fill="currentColor" />
    </symbol>

</svg>
