<?xml version="1.0" encoding="UTF-8"?>
<svg xmlns="http://www.w3.org/2000/svg" style="display:none">

    <!-- HOME -->
    <symbol id="icon-home" viewBox="0 0 24 24">
        <path d="M3 11L12 3l9 8v10a1 1 0 0 1-1 1h-5v-6H9v6H4a1 1 0 0 1-1-1z" fill="none" stroke="currentColor" stroke-width="2" stroke-linecap="round" stroke-linejoin="round"/>
    </symbol>

    <!-- CAR -->
    <symbol id="icon-car" viewBox="0 0 24 24">
        <path d="M3 13l2-5h14l2 5v6H3z" fill="none" stroke="currentColor" stroke-width="2"/>
        <circle cx="7" cy="19" r="2"/>
        <circle cx="17" cy="19" r="2"/>
    </symbol>

    <!-- FUEL -->
    <symbol id="icon-fuel" viewBox="0 0 24 24">
        <path d="M3 3h10v18H3zM13 7h3l2 2v9a2 2 0 0 1-2 2h-3" fill="none" stroke="currentColor" stroke-width="2"/>
    </symbol>

    <!-- DROPLET -->
    <symbol id="icon-droplet" viewBox="0 0 24 24">
        <path d="M12 2s6 7 6 11a6 6 0 0 1-12 0c0-4 6-11 6-11z" fill="none" stroke="currentColor" stroke-width="2"/>
    </symbol>

    <!-- DASHBOARD -->
    <symbol id="icon-dashboard" viewBox="0 0 24 24">
        <path d="M3 13a9 9 0 0 1 18 0" fill="none" stroke="currentColor" stroke-width="2"/>
        <path d="M12 13l3-3" stroke="currentColor" stroke-width="2"/>
    </symbol>

    <!-- USER -->
    <symbol id="icon-user" viewBox="0 0 24 24">
        <circle cx="12" cy="7" r="4"/>
        <path d="M5.5 21a6.5 6.5 0 0 1 13 0" fill="none" stroke="currentColor" stroke-width="2"/>
    </symbol>

    <!-- LOGOUT -->
    <symbol id="icon-logout" viewBox="0 0 24 24">
        <path d="M9 21H5a2 2 0 0 1-2-2V5a2 2 0 0 1 2-2h4" fill="none" stroke="currentColor" stroke-width="2"/>
        <path d="M16 17l5-5-5-5M21 12H9" fill="none" stroke="currentColor" stroke-width="2"/>
    </symbol>

    <!-- WALLET -->
    <symbol id="icon-wallet" viewBox="0 0 24 24">
        <rect x="2" y="6" width="20" height="14" rx="2" fill="none" stroke="currentColor" stroke-width="2"/>
        <circle cx="17" cy="13" r="1"/>
    </symbol>

    <!-- TREND UP -->
    <symbol id="icon-trend-up" viewBox="0 0 24 24">
        <path d="M3 17l6-6 4 4 7-7" fill="none" stroke="currentColor" stroke-width="2"/>
        <path d="M14 7h7v7" fill="none" stroke="currentColor" stroke-width="2"/>
    </symbol>

    <!-- PLUS -->
    <symbol id="icon-plus" viewBox="0 0 24 24">
        <path d="M12 5v14M5 12h14" fill="none" stroke="currentColor" stroke-width="2"/>
    </symbol>

    <!-- CALENDAR -->
    <symbol id="icon-calendar" viewBox="0 0 24 24">
        <rect x="3" y="4" width="18" height="18" rx="2" fill="none" stroke="currentColor" stroke-width="2"/>
        <path d="M16 2v4M8 2v4M3 10h18" fill="none" stroke="currentColor" stroke-width="2"/>
    </symbol>

    <!-- GAUGE -->
    <symbol id="icon-gauge" viewBox="0 0 24 24">
        <path d="M3 13a9 9 0 0 1 18 0" fill="none" stroke="currentColor" stroke-width="2"/>
        <path d="M12 13l4-4" stroke="currentColor" stroke-width="2"/>
    </symbol>

    <!-- ODOMETER -->
    <symbol id="icon-odometer" viewBox="0 0 24 24">
        <rect x="3" y="6" width="18" height="12" rx="2" fill="none" stroke="currentColor" stroke-width="2"/>
        <circle cx="8" cy="12" r="1"/>
        <circle cx="12" cy="12" r="1"/>
        <circle cx="16" cy="12" r="1"/>
    </symbol>

    <!-- STATION -->
    <symbol id="icon-station" viewBox="0 0 24 24">
        <path d="M4 3h8v18H4zM12 7h3l2 2v12" fill="none" stroke="currentColor" stroke-width="2"/>
    </symbol>

    <!-- FILE / DOCUMENT -->
    <symbol id="icon-file-text" viewBox="0 0 24 24">
        <path d="M14 2H6a2 2 0 0 0-2 2v16a2 2 0 0 0 2 2h12a2 2 0 0 0 2-2V8z" fill="none" stroke="currentColor" stroke-width="2"/>
        <path d="M14 2v6h6M8 13h8M8 17h8M8 9h2" fill="none" stroke="currentColor" stroke-width="2"/>
    </symbol>

    <!-- WRENCH / MANUTENÇÃO -->
    <symbol id="icon-wrench" viewBox="0 0 24 24">
        <path d="M14.7 6.3a4 4 0 0 0-5.7 5.7L3 18l3 3 6-6a4 4 0 0 0 5.7-5.7z" fill="none" stroke="currentColor" stroke-width="2"/>
    </symbol>

    <!-- EDIT -->
    <symbol id="icon-edit" viewBox="0 0 24 24">
        <path d="M4 20h4l10.5-10.5a1.5 1.5 0 0 0-4-4L4 16v4z" fill="none" stroke="currentColor" stroke-width="2" stroke-linecap="round" stroke-linejoin="round"/>
    </symbol>

    <!-- TRASH / DELETE -->
    <symbol id="icon-trash" viewBox="0 0 24 24">
        <path d="M3 6h18M8 6v12M16 6v12M5 6l1 14a2 2 0 0 0 2 2h8a2 2 0 0 0 2-2l1-14" fill="none" stroke="currentColor" stroke-width="2" stroke-linecap="round" stroke-linejoin="round"/>
    </symbol>

    <!-- CLOSE -->
    <symbol id="icon-close" viewBox="0 0 24 24">
        <path d="M18 6L6 18M6 6l12 12" fill="none" stroke="currentColor" stroke-width="2" stroke-linecap="round" stroke-linejoin="round"/>
    </symbol>



  <symbol id="icon-chevron-right" viewBox="0 0 24 24">
        <path d="M9 18l6-6-6-6" fill="none" stroke="currentColor" stroke-width="2" stroke-linecap="round" stroke-linejoin="round" />
    </symbol>

  <symbol id="icon-link" viewBox="0 0 24 24">
  <path d="M10 13a5 5 0 0 1 0-7l1.2-1.2a5 5 0 0 1 7 7L17 13" fill="none" stroke="currentColor" stroke-width="2" stroke-linecap="round" stroke-linejoin="round"/>
  <path d="M14 11a5 5 0 0 1 0 7L12.8 19.2a5 5 0 1 1-7-7L7 11" fill="none" stroke="currentColor" stroke-width="2" stroke-linecap="round" stroke-linejoin="round"/>
</symbol>

  <symbol id="icon-folder" viewBox="0 0 24 24">
  <path d="M3 6a2 2 0 0 1 2-2h5l2 2h7a2 2 0 0 1 2 2v10a2 2 0 0 1-2 2H5a2 2 0 0 1-2-2V6z" fill="none" stroke="currentColor" stroke-width="2" stroke-linecap="round" stroke-linejoin="round"/>
</symbol>

  <symbol id="icon-file" viewBox="0 0 24 24">
  <path d="M14 2H6a2 2 0 0 0-2 2v16a2 2 0 0 0 2 2h12a2 2 0 0 0 2-2V8z" fill="none" stroke="currentColor" stroke-width="2" stroke-linecap="round" stroke-linejoin="round"/>
  <path d="M14 2v6h6" fill="none" stroke="currentColor" stroke-width="2" stroke-linecap="round" stroke-linejoin="round"/>
</symbol>

  <symbol id="icon-receipt" viewBox="0 0 24 24">
  <path d="M6 2h12v20l-2-1-2 1-2-1-2 1-2-1-2 1V2z" fill="none" stroke="currentColor" stroke-width="2" stroke-linecap="round" stroke-linejoin="round"/>
  <path d="M9 7h6M9 11h6M9 15h6" fill="none" stroke="currentColor" stroke-width="2" stroke-linecap="round" stroke-linejoin="round"/>
</symbol>

</svg>
